<svg width="192" height="66" viewBox="0 0 192 66" fill="none" xmlns="http://www.w3.org/2000/svg">
<g clip-path="url(#clip0_55_362)">
<path d="M23.7575 34.9793V34.5436C23.8447 34.5436 24.0482 34.5145 24.368 34.4564C24.7169 34.3983 25.0657 34.2967 25.4146 34.1515C25.7925 34.0062 26.1123 33.8029 26.374 33.5415C26.6647 33.2801 26.81 32.9461 26.81 32.5394C26.81 32.278 26.7228 31.8568 26.5484 31.2759C26.403 30.666 26.185 29.9398 25.8943 29.0975C25.6036 28.2261 25.2692 27.2676 24.8913 26.222C24.5134 25.1763 24.1063 24.0871 23.6703 22.9544H12.0705C11.6344 24.0581 11.2129 25.1183 10.8059 26.1349C10.3988 27.1224 9.99184 28.1245 9.58483 29.1411C8.97432 30.7095 8.66906 31.8133 8.66906 32.4523C8.66906 32.8299 8.78535 33.1494 9.01792 33.4108C9.2505 33.6432 9.54122 33.8465 9.89009 34.0207C10.268 34.166 10.6605 34.2822 11.0675 34.3693C11.5036 34.4274 11.9106 34.4855 12.2885 34.5436V34.9793H3V34.5C3.75587 34.4129 4.39546 34.2095 4.91876 33.89C5.47113 33.5705 5.79092 33.3527 5.87814 33.2365C6.08164 33.0332 6.41597 32.5539 6.88113 31.7988C7.34628 31.0436 7.91319 29.9253 8.58184 28.444C9.19236 27.0788 9.87555 25.5249 10.6314 23.7822C11.3873 22.0394 12.1577 20.2531 12.9427 18.4232C13.7567 16.5643 14.5562 14.7054 15.3411 12.8465C16.1261 10.9585 16.8674 9.20124 17.5651 7.57469L17.129 6.61618C17.6523 6.38382 18.1175 6.10788 18.5245 5.78838C18.9606 5.46888 19.3385 5.13485 19.6583 4.78631C19.9781 4.43776 20.2398 4.10373 20.4433 3.78423C20.6758 3.46473 20.8503 3.20332 20.9666 3H21.3154C22.2167 5.41079 23.0743 7.70539 23.8883 9.88382C24.7023 12.0332 25.4727 14.11 26.1995 16.1141C26.9554 18.1183 27.6822 20.0643 28.3799 21.9523C29.0777 23.8112 29.7754 25.6556 30.4731 27.4855C30.7929 28.3859 31.0836 29.1411 31.3453 29.751C31.636 30.3319 31.9558 31 32.3047 31.7552C32.3628 31.8714 32.4936 32.0747 32.6972 32.3651C32.9007 32.6556 33.1623 32.9606 33.4821 33.2801C33.831 33.5705 34.2525 33.8319 34.7467 34.0643C35.241 34.2967 35.8224 34.4274 36.4911 34.4564V34.9793H23.7575ZM18.0448 8.57676C17.8704 8.95436 17.6087 9.54979 17.2599 10.3631C16.9401 11.1763 16.5331 12.1639 16.0388 13.3257C15.5446 14.4876 14.9922 15.8091 14.3817 17.2905C13.8003 18.7427 13.1607 20.3257 12.463 22.0394H23.3214C22.8272 20.7324 22.3184 19.4253 21.7951 18.1183C21.3009 16.8112 20.8067 15.5622 20.3124 14.3714C19.8473 13.1515 19.4112 12.0477 19.0042 11.0602C18.6263 10.0436 18.3065 9.21577 18.0448 8.57676Z" fill="white"/>
<path d="M45.566 34.9793H35.4053V34.5C36.7426 34.4129 37.6293 34.2822 38.0654 34.1079C38.5015 33.9046 38.7195 33.5705 38.7195 33.1058V8.05394C38.7195 7.82158 38.6904 7.6473 38.6323 7.53112C38.6032 7.41494 38.4869 7.28423 38.2834 7.139C38.0218 6.99377 37.6293 6.77593 37.106 6.48548C36.5827 6.16597 36.1466 5.93361 35.7978 5.78838V5.52697L42.0337 3.47925H42.339V33.3237C42.339 33.6141 42.3971 33.8319 42.5134 33.9772C42.6588 34.1224 42.8623 34.2241 43.1239 34.2822C43.3856 34.3402 43.7199 34.3838 44.1269 34.4129C44.5339 34.4129 45.0136 34.4419 45.566 34.5V34.9793Z" fill="white"/>
<path d="M68.2463 23.4336C68.2463 25.0602 67.9556 26.5705 67.3741 27.9647C66.8218 29.3589 66.0223 30.5643 64.9757 31.5809C63.9291 32.5685 62.6499 33.3527 61.1382 33.9336C59.6264 34.4855 57.9257 34.7614 56.036 34.7614C55.5127 34.7614 54.9894 34.7469 54.4661 34.7178C53.9719 34.6888 53.4486 34.6162 52.8962 34.5C52.8962 34.9066 52.8962 35.5021 52.8962 36.2863C52.9253 37.0705 52.9398 37.8983 52.9398 38.7697C52.9689 39.6411 52.9835 40.4979 52.9835 41.3402C52.9835 42.1826 52.9835 42.8651 52.9835 43.388C53.0416 43.6494 53.2015 43.8382 53.4631 43.9544C53.7248 44.0996 54.0301 44.2012 54.3789 44.2593C54.7569 44.3465 55.1348 44.4046 55.5127 44.4336C55.9197 44.4627 56.2686 44.4917 56.5593 44.5207V45H45.8317V44.5207C46.1224 44.4917 46.4713 44.4336 46.8783 44.3465C47.2853 44.2884 47.6633 44.2012 48.0121 44.0851C48.3901 43.9689 48.6953 43.8236 48.9279 43.6494C49.1895 43.4751 49.3204 43.2718 49.3204 43.0394V18.9025C49.3204 18.6701 49.2913 18.4958 49.2332 18.3797C49.2041 18.2635 49.0878 18.1328 48.8843 17.9876C48.6226 17.8423 48.2011 17.639 47.6197 17.3776C47.0382 17.0871 46.5731 16.8693 46.2242 16.7241V16.4627L52.6346 13.9357H52.8962V18.8154L52.9398 18.9025C53.3469 18.3506 53.7975 17.7842 54.2917 17.2033C54.7859 16.6224 55.3383 16.0996 55.9488 15.6349C56.5593 15.1411 57.2134 14.7344 57.9112 14.4149C58.638 14.0954 59.4229 13.9357 60.266 13.9357C61.6324 13.9357 62.8098 14.2116 63.7983 14.7635C64.8158 15.3154 65.6444 16.0415 66.2839 16.9419C66.9526 17.8423 67.4468 18.8589 67.7666 19.9917C68.0864 21.1245 68.2463 22.2718 68.2463 23.4336ZM64.3216 24.6971C64.3216 23.5934 64.1907 22.5622 63.9291 21.6037C63.6674 20.6452 63.2604 19.8174 62.7081 19.1203C62.1848 18.3942 61.5016 17.8278 60.6585 17.4212C59.8445 16.9855 58.8851 16.7676 57.7803 16.7676C57.0245 16.7676 56.3413 16.9129 55.7308 17.2033C55.1493 17.4647 54.6406 17.7842 54.2045 18.1618C53.7975 18.5104 53.4777 18.8734 53.2451 19.251C53.0416 19.6286 52.9398 19.9046 52.9398 20.0788C52.9398 20.6597 52.9253 21.2842 52.8962 21.9523C52.8962 22.5913 52.8962 23.1577 52.8962 23.6515C52.8962 24.8423 52.8962 25.7718 52.8962 26.4398C52.8962 27.1079 52.9108 27.7759 52.9398 28.444C52.998 29.0539 53.0997 29.6929 53.2451 30.361C53.3905 31 53.6376 31.5954 53.9864 32.1473C54.3353 32.6701 54.815 33.1058 55.4255 33.4544C56.036 33.7739 56.821 33.9336 57.7803 33.9336C58.6234 33.9336 59.4375 33.7012 60.2224 33.2365C61.0074 32.7718 61.7051 32.1328 62.3156 31.3195C62.9261 30.5062 63.4058 29.5332 63.7547 28.4004C64.1326 27.2676 64.3216 26.0332 64.3216 24.6971Z" fill="white"/>
<path d="M91.5409 34.9793H82.5576V34.5C83.3426 34.4419 83.9967 34.3548 84.52 34.2386C85.0433 34.0934 85.3049 33.7884 85.3049 33.3237V22.4315C85.3049 21.5892 85.2468 20.805 85.1305 20.0788C85.0142 19.3527 84.7962 18.7282 84.4764 18.2054C84.1856 17.6826 83.7786 17.2759 83.2553 16.9855C82.7321 16.695 82.0634 16.5498 81.2494 16.5498C80.2028 16.5498 79.3161 16.7386 78.5893 17.1162C77.8625 17.4938 77.281 18.0021 76.8449 18.6411C76.7868 18.7282 76.6996 18.917 76.5833 19.2075C76.4961 19.4689 76.4525 19.7158 76.4525 19.9481V33.3237C76.4525 33.5851 76.5252 33.7884 76.6705 33.9336C76.8159 34.0788 77.0048 34.195 77.2374 34.2822C77.47 34.3402 77.7316 34.3838 78.0224 34.4129C78.3131 34.4419 78.6038 34.4855 78.8945 34.5436V34.9793H70.2165V34.5436C70.8852 34.4855 71.4811 34.3838 72.0044 34.2386C72.5568 34.0643 72.833 33.7012 72.833 33.1494V8.40249C72.833 8.17012 72.8039 7.99585 72.7458 7.87967C72.7167 7.76348 72.6004 7.63278 72.3969 7.48755C72.1643 7.28423 71.8445 7.09544 71.4375 6.92116C71.0596 6.71784 70.6817 6.5 70.3037 6.26763V6.00622L76.1472 3.34855H76.4961L76.3653 18.4668L76.4525 18.5104C76.656 18.1037 76.9612 17.639 77.3682 17.1162C77.8043 16.5934 78.3422 16.0996 78.9817 15.6349C79.6213 15.1701 80.3481 14.778 81.1622 14.4585C82.0052 14.11 82.921 13.9357 83.9095 13.9357C84.8689 13.9357 85.6683 14.11 86.3079 14.4585C86.9766 14.778 87.4999 15.2427 87.8778 15.8527C88.2848 16.4336 88.561 17.1307 88.7064 17.944C88.8808 18.7573 88.968 19.6432 88.968 20.6017V33.4544C88.968 33.6577 89.0552 33.8319 89.2297 33.9772C89.4041 34.1224 89.6221 34.2386 89.8838 34.3257C90.1454 34.3838 90.4216 34.4419 90.7123 34.5C91.0031 34.529 91.2792 34.5581 91.5409 34.5871V34.9793Z" fill="white"/>
<path d="M112.273 30.7095C112.244 31.2614 112.113 31.7988 111.88 32.3216C111.648 32.8444 111.343 33.3236 110.965 33.7593C110.587 34.166 110.136 34.4855 109.613 34.7178C109.118 34.9212 108.566 35.0228 107.956 35.0228C106.967 35.0228 106.08 34.7324 105.296 34.1515C104.54 33.5705 104.162 32.5539 104.162 31.1017L104.074 31.0581C103.842 31.4357 103.522 31.8568 103.115 32.3216C102.737 32.7863 102.272 33.222 101.72 33.6286C101.196 34.0353 100.6 34.3693 99.9317 34.6307C99.2921 34.8631 98.5799 34.9793 97.7949 34.9793C97.3298 34.9793 96.8501 34.9212 96.3558 34.805C95.8907 34.6597 95.4546 34.4274 95.0476 34.1079C94.6697 33.7593 94.3499 33.3236 94.0882 32.8008C93.8556 32.278 93.7394 31.639 93.7394 30.8838C93.7394 30.0705 94.0592 29.2863 94.6987 28.5311C95.3674 27.7759 96.1814 27.0934 97.1408 26.4834C98.1002 25.8734 98.9433 25.3506 99.6701 24.9149C100.426 24.4793 101.08 24.1162 101.632 23.8257C102.185 23.5062 102.664 23.2448 103.071 23.0415C103.508 22.8091 103.871 22.6058 104.162 22.4315V17.944C104.162 17.8859 104.104 17.7552 103.987 17.5519C103.9 17.3195 103.726 17.0871 103.464 16.8548C103.231 16.6224 102.897 16.4191 102.461 16.2448C102.025 16.0415 101.458 15.9398 100.76 15.9398C100.295 15.9398 99.83 16.027 99.3648 16.2012C98.9287 16.3465 98.5363 16.5498 98.1874 16.8112C97.8385 17.0436 97.5623 17.2905 97.3588 17.5519C97.1553 17.7842 97.0536 17.9876 97.0536 18.1618V20.1224C97.0536 20.529 96.8355 20.8921 96.3995 21.2116C95.9924 21.5311 95.5418 21.6909 95.0476 21.6909C94.5824 21.6909 94.1754 21.5311 93.8266 21.2116C93.5068 20.8631 93.3469 20.471 93.3469 20.0353C93.3469 19.6867 93.4341 19.3672 93.6085 19.0768C93.783 18.7863 94.001 18.5249 94.2627 18.2925C94.5243 18.0602 94.8005 17.8568 95.0912 17.6826C95.411 17.5083 95.6872 17.3485 95.9198 17.2033C96.6756 16.7676 97.4461 16.3465 98.231 15.9398C99.0159 15.5332 99.7573 15.1846 100.455 14.8942C101.182 14.6037 101.836 14.3714 102.417 14.1971C103.028 14.0228 103.522 13.9357 103.9 13.9357C104.656 13.9357 105.368 14.139 106.037 14.5456C106.706 14.9232 107.185 15.4025 107.476 15.9834C107.592 16.1867 107.665 16.5498 107.694 17.0726C107.723 17.5664 107.738 18.0602 107.738 18.5539C107.738 19.5996 107.723 20.5436 107.694 21.3859C107.694 22.2282 107.694 23.0415 107.694 23.8257C107.694 24.61 107.679 25.4232 107.65 26.2656C107.65 27.0788 107.65 27.9793 107.65 28.9668C107.65 30.2739 107.868 31.1452 108.304 31.5809C108.77 31.9876 109.293 32.1909 109.874 32.1909C110.543 32.1909 111.037 32.0602 111.357 31.7988C111.677 31.5083 111.895 31.1452 112.011 30.7095H112.273ZM104.162 29.8382V23.1286C103.638 23.5062 102.984 23.9129 102.199 24.3485C101.414 24.7552 100.644 25.2054 99.8881 25.6992C99.1613 26.1929 98.5217 26.7448 97.9693 27.3548C97.446 27.9357 97.1844 28.6037 97.1844 29.3589C97.1844 30.1141 97.446 30.7967 97.9693 31.4066C98.4926 32.0166 99.1758 32.3216 100.019 32.3216C100.775 32.3216 101.443 32.2344 102.025 32.0602C102.606 31.8859 103.144 31.5519 103.638 31.0581C103.987 30.7386 104.162 30.3319 104.162 29.8382Z" fill="white"/>
<path d="M134.175 24.4357C134.175 25.917 133.913 27.3112 133.39 28.6183C132.896 29.8963 132.183 31.0145 131.253 31.973C130.352 32.9315 129.276 33.6867 128.026 34.2386C126.776 34.7614 125.409 35.0228 123.927 35.0228C122.27 35.0228 120.758 34.805 119.392 34.3693C118.025 33.9046 116.877 33.2801 115.946 32.4958H115.728L114.682 34.8485H114.377V7.70539C114.115 7.53112 113.752 7.31328 113.286 7.05187C112.821 6.79046 112.342 6.52904 111.847 6.26763V6.00622L117.691 3.34855H118.04L117.909 18.8589L117.996 18.9025C118.258 18.2925 118.65 17.6971 119.173 17.1162C119.697 16.5353 120.293 16.0124 120.961 15.5477C121.659 15.0539 122.415 14.6618 123.229 14.3714C124.043 14.0809 124.857 13.9357 125.671 13.9357C127.037 13.9357 128.244 14.2261 129.291 14.8071C130.337 15.388 131.224 16.1722 131.951 17.1598C132.677 18.1183 133.23 19.2365 133.608 20.5145C133.986 21.7635 134.175 23.0705 134.175 24.4357ZM130.163 25.0456C130.163 23.9419 130.017 22.8963 129.727 21.9087C129.465 20.8921 129.043 20.0062 128.462 19.251C127.91 18.4668 127.197 17.8423 126.325 17.3776C125.453 16.9129 124.421 16.6805 123.229 16.6805C122.328 16.6805 121.543 16.8257 120.874 17.1162C120.235 17.4066 119.697 17.7407 119.261 18.1183C118.854 18.4958 118.534 18.8734 118.301 19.251C118.098 19.6286 117.996 19.9046 117.996 20.0788C117.967 20.4274 117.952 20.9357 117.952 21.6037C117.952 22.2427 117.952 22.7656 117.952 23.1722C117.952 23.7531 117.952 24.334 117.952 24.9149C117.952 25.4668 117.967 26.0187 117.996 26.5705C118.025 27.529 118.156 28.4876 118.389 29.4461C118.621 30.3755 118.97 31.2178 119.435 31.973C119.929 32.6992 120.554 33.2946 121.31 33.7593C122.066 34.195 122.982 34.4129 124.058 34.4129C124.988 34.4129 125.816 34.1805 126.543 33.7158C127.299 33.251 127.939 32.5975 128.462 31.7552C129.014 30.9129 129.436 29.9253 129.727 28.7925C130.017 27.6307 130.163 26.3817 130.163 25.0456Z" fill="white"/>
<path d="M153.889 28.3568C153.773 28.9958 153.511 29.722 153.104 30.5353C152.697 31.3195 152.145 32.0456 151.447 32.7137C150.75 33.3817 149.906 33.9336 148.918 34.3693C147.959 34.805 146.883 35.0228 145.691 35.0228C144.208 35.0228 142.856 34.7469 141.635 34.195C140.414 33.6432 139.368 32.8734 138.496 31.8859C137.653 30.8693 136.998 29.6929 136.533 28.3568C136.068 26.9917 135.836 25.5539 135.836 24.0436C135.836 22.8237 136.054 21.6183 136.49 20.4274C136.926 19.2075 137.536 18.1183 138.321 17.1598C139.135 16.2012 140.109 15.4315 141.243 14.8506C142.406 14.2407 143.685 13.9357 145.08 13.9357C146.214 13.9357 147.275 14.0809 148.264 14.3714C149.281 14.6618 150.154 15.112 150.88 15.722C151.636 16.3029 152.247 17.0436 152.712 17.944C153.177 18.8444 153.453 19.9046 153.54 21.1245H139.542C139.542 21.3568 139.528 21.6328 139.499 21.9523C139.47 22.2427 139.455 22.5477 139.455 22.8672C139.455 24.0871 139.629 25.2635 139.978 26.3963C140.327 27.5 140.836 28.4875 141.505 29.3589C142.173 30.2012 143.016 30.8693 144.034 31.3631C145.051 31.8568 146.229 32.1037 147.566 32.1037C149.02 32.1037 150.284 31.7407 151.36 31.0145C152.465 30.2593 153.192 29.3444 153.54 28.2697L153.889 28.3568ZM149.223 18.5975C149.223 17.5228 148.845 16.6079 148.089 15.8527C147.363 15.0685 146.374 14.6763 145.124 14.6763C144.31 14.6763 143.569 14.9232 142.9 15.417C142.26 15.8817 141.694 16.4336 141.199 17.0726C140.734 17.7116 140.371 18.3651 140.109 19.0332C139.847 19.6722 139.688 20.166 139.629 20.5145C140.298 20.5145 140.894 20.5145 141.417 20.5145C141.941 20.5145 142.449 20.5145 142.944 20.5145C143.467 20.4855 144.005 20.471 144.557 20.471C145.11 20.4419 145.72 20.4274 146.389 20.4274C146.825 20.4274 147.232 20.4129 147.61 20.3838C147.988 20.3548 148.322 20.2822 148.613 20.166C148.816 19.9336 148.962 19.7158 149.049 19.5124C149.165 19.3091 149.223 19.0041 149.223 18.5975Z" fill="white"/>
<path d="M172.84 28.3568C172.724 28.9958 172.462 29.722 172.055 30.5353C171.648 31.3195 171.096 32.0456 170.398 32.7137C169.7 33.3817 168.857 33.9336 167.869 34.3693C166.909 34.805 165.834 35.0228 164.642 35.0228C163.159 35.0228 161.807 34.7469 160.586 34.195C159.365 33.6432 158.319 32.8734 157.446 31.8859C156.603 30.8693 155.949 29.6929 155.484 28.3568C155.019 26.9917 154.786 25.5539 154.786 24.0436C154.786 22.8237 155.004 21.6183 155.44 20.4274C155.877 19.2075 156.487 18.1183 157.272 17.1598C158.086 16.2012 159.06 15.4315 160.194 14.8506C161.357 14.2407 162.636 13.9357 164.031 13.9357C165.165 13.9357 166.226 14.0809 167.215 14.3714C168.232 14.6618 169.104 15.112 169.831 15.722C170.587 16.3029 171.198 17.0436 171.663 17.944C172.128 18.8444 172.404 19.9046 172.491 21.1245H158.493C158.493 21.3568 158.478 21.6328 158.449 21.9523C158.42 22.2427 158.406 22.5477 158.406 22.8672C158.406 24.0871 158.58 25.2635 158.929 26.3963C159.278 27.5 159.787 28.4875 160.455 29.3589C161.124 30.2012 161.967 30.8693 162.985 31.3631C164.002 31.8568 165.18 32.1037 166.517 32.1037C167.971 32.1037 169.235 31.7407 170.311 31.0145C171.416 30.2593 172.142 29.3444 172.491 28.2697L172.84 28.3568ZM168.174 18.5975C168.174 17.5228 167.796 16.6079 167.04 15.8527C166.313 15.0685 165.325 14.6763 164.075 14.6763C163.261 14.6763 162.52 14.9232 161.851 15.417C161.211 15.8817 160.644 16.4336 160.15 17.0726C159.685 17.7116 159.322 18.3651 159.06 19.0332C158.798 19.6722 158.638 20.166 158.58 20.5145C159.249 20.5145 159.845 20.5145 160.368 20.5145C160.891 20.5145 161.4 20.5145 161.894 20.5145C162.418 20.4855 162.956 20.471 163.508 20.471C164.06 20.4419 164.671 20.4274 165.34 20.4274C165.776 20.4274 166.183 20.4129 166.561 20.3838C166.938 20.3548 167.273 20.2822 167.564 20.166C167.767 19.9336 167.912 19.7158 168 19.5124C168.116 19.3091 168.174 19.0041 168.174 18.5975Z" fill="white"/>
<path d="M189 28.6183C189 29.751 188.767 30.7386 188.302 31.5809C187.866 32.3942 187.27 33.0622 186.514 33.5851C185.758 34.1079 184.886 34.4855 183.898 34.7178C182.938 34.9502 181.921 35.0664 180.845 35.0664C179.566 35.0664 178.36 34.9502 177.226 34.7178C176.092 34.4855 175.045 34.1515 174.086 33.7158V27.9647H174.435C174.667 28.6618 174.958 29.4025 175.307 30.1867C175.656 30.9419 176.077 31.6535 176.572 32.3216C177.066 32.9606 177.662 33.4979 178.36 33.9336C179.057 34.3402 179.886 34.5436 180.845 34.5436C182.241 34.5436 183.345 34.1515 184.159 33.3672C185.003 32.5539 185.424 31.3195 185.424 29.6639C185.424 28.7635 185.133 28.0228 184.552 27.4419C184 26.8319 183.229 26.4253 182.241 26.222C181.456 26.0768 180.7 25.917 179.973 25.7427C179.246 25.5685 178.592 25.3797 178.011 25.1763C176.906 24.7988 176.005 24.1452 175.307 23.2158C174.638 22.2863 174.304 21.168 174.304 19.861C174.304 18.9606 174.493 18.1473 174.871 17.4212C175.249 16.695 175.758 16.0705 176.397 15.5477C177.037 15.0249 177.778 14.6328 178.621 14.3714C179.464 14.0809 180.366 13.9357 181.325 13.9357C182.546 13.9357 183.622 14.0519 184.552 14.2842C185.482 14.4876 186.369 14.749 187.212 15.0685L187.735 20.471L187.386 20.5581C186.979 19.6867 186.572 18.888 186.165 18.1618C185.758 17.4066 185.308 16.7676 184.814 16.2448C184.319 15.6929 183.752 15.2718 183.113 14.9813C182.502 14.6909 181.79 14.5456 180.976 14.5456C180.482 14.5456 179.988 14.6328 179.493 14.8071C179.028 14.9813 178.607 15.2427 178.229 15.5913C177.88 15.9108 177.589 16.3319 177.357 16.8548C177.124 17.3485 177.008 17.9295 177.008 18.5975C177.008 19.6722 177.313 20.4419 177.924 20.9066C178.534 21.3714 179.304 21.7199 180.235 21.9523C180.874 22.0975 181.572 22.2573 182.328 22.4315C183.084 22.5768 183.738 22.722 184.29 22.8672C185.599 23.1867 186.703 23.8548 187.605 24.8714C188.535 25.888 189 27.1369 189 28.6183Z" fill="white"/>
<path d="M3 45L40 45" stroke="white"/>
<path d="M67.364 54.056V55.064H64.718L63.038 62.932C62.9633 63.2867 62.814 63.548 62.59 63.716C62.3753 63.884 62.1373 63.968 61.876 63.968C61.5773 63.968 61.3347 63.9073 61.148 63.786C60.9707 63.6647 60.8167 63.5013 60.686 63.296L60.07 62.302L60.924 61.756L61.512 62.694C61.5773 62.806 61.6613 62.862 61.764 62.862C61.8387 62.862 61.89 62.8387 61.918 62.792C61.9553 62.7547 61.9833 62.708 62.002 62.652L63.626 55.064H61.484V54.056H63.85L64.214 52.292C64.2887 51.9747 64.4473 51.7133 64.69 51.508C64.9327 51.3027 65.2127 51.2 65.53 51.2H68.036V52.208H65.712C65.4507 52.208 65.292 52.348 65.236 52.628L64.942 54.056H67.364ZM73.1783 53.86C73.5796 53.86 73.9529 53.93 74.2983 54.07C74.6436 54.21 74.9423 54.406 75.1943 54.658C75.4463 54.91 75.6423 55.2133 75.7823 55.568C75.9316 55.9133 76.0063 56.296 76.0063 56.716C76.0063 57.2947 75.9083 57.8547 75.7123 58.396C75.5256 58.928 75.2456 59.404 74.8723 59.824C74.5083 60.2347 74.0556 60.566 73.5143 60.818C72.9823 61.07 72.3756 61.196 71.6943 61.196C71.3023 61.196 70.9336 61.1307 70.5883 61C70.2429 60.86 69.9396 60.6687 69.6783 60.426C69.4263 60.1833 69.2256 59.8893 69.0763 59.544C68.9269 59.1893 68.8523 58.7973 68.8523 58.368C68.8523 57.696 68.9643 57.0847 69.1883 56.534C69.4216 55.974 69.7343 55.498 70.1263 55.106C70.5276 54.714 70.9896 54.4107 71.5123 54.196C72.0349 53.972 72.5903 53.86 73.1783 53.86ZM71.9323 60.16C72.3616 60.16 72.7583 60.0667 73.1223 59.88C73.4863 59.684 73.7989 59.432 74.0603 59.124C74.3216 58.8067 74.5223 58.4473 74.6623 58.046C74.8116 57.6447 74.8863 57.2293 74.8863 56.8C74.8863 56.2493 74.7136 55.7967 74.3683 55.442C74.0323 55.078 73.5563 54.896 72.9403 54.896C72.5389 54.896 72.1609 54.9847 71.8063 55.162C71.4516 55.3393 71.1389 55.582 70.8683 55.89C70.6069 56.198 70.3969 56.5573 70.2383 56.968C70.0796 57.3693 70.0003 57.7987 70.0003 58.256C70.0003 58.816 70.1683 59.2733 70.5043 59.628C70.8403 59.9827 71.3163 60.16 71.9323 60.16ZM82.2545 59.824H82.0865C81.8345 60.272 81.5125 60.6127 81.1205 60.846C80.7285 61.0793 80.2525 61.196 79.6925 61.196C79.0765 61.196 78.5772 61.0233 78.1945 60.678C77.8119 60.3233 77.6205 59.8007 77.6205 59.11C77.6205 58.97 77.6252 58.83 77.6345 58.69C77.6532 58.5407 77.6859 58.3773 77.7325 58.2L78.6565 54.056H79.7485L78.8525 58.06C78.7872 58.3493 78.7545 58.62 78.7545 58.872C78.7545 59.7307 79.2165 60.16 80.1405 60.16C80.7845 60.16 81.3305 59.936 81.7785 59.488C82.2359 59.0307 82.5485 58.424 82.7165 57.668L83.5285 54.056H84.6205L83.3465 59.824C83.3279 59.8987 83.3372 59.9593 83.3745 60.006C83.4119 60.0527 83.4632 60.076 83.5285 60.076C83.5939 60.076 83.6592 60.0527 83.7245 60.006L84.3265 59.572L84.9145 60.384L84.2145 60.916C84.1025 61.0093 83.9625 61.0793 83.7945 61.126C83.6359 61.1727 83.4725 61.196 83.3045 61.196C83.1645 61.196 83.0292 61.1773 82.8985 61.14C82.7679 61.1027 82.6512 61.042 82.5485 60.958C82.4459 60.874 82.3619 60.7713 82.2965 60.65C82.2405 60.5193 82.2125 60.3653 82.2125 60.188C82.2125 60.1413 82.2125 60.0947 82.2125 60.048C82.2219 60.0013 82.2312 59.9547 82.2405 59.908L82.2545 59.824ZM91.4988 56.828C91.5268 56.6973 91.5455 56.59 91.5548 56.506C91.5641 56.4127 91.5688 56.3193 91.5688 56.226C91.5688 55.778 91.4335 55.4467 91.1628 55.232C90.9015 55.008 90.5328 54.896 90.0568 54.896C89.4221 54.896 88.9041 55.1247 88.5028 55.582C88.1015 56.03 87.8261 56.604 87.6768 57.304L86.8928 61H85.8008L87.2848 54.056H88.3768L88.1668 55.064H88.3348C88.5681 54.644 88.8715 54.3407 89.2448 54.154C89.6275 53.958 90.0288 53.86 90.4488 53.86C90.7475 53.86 91.0321 53.9113 91.3028 54.014C91.5735 54.1073 91.8068 54.2473 92.0028 54.434C92.2081 54.6207 92.3668 54.8493 92.4788 55.12C92.6001 55.3907 92.6608 55.7033 92.6608 56.058C92.6608 56.2913 92.6328 56.5387 92.5768 56.8L91.9048 59.908C91.8861 59.9827 91.8955 60.0387 91.9328 60.076C91.9701 60.1133 92.0168 60.132 92.0728 60.132C92.1288 60.132 92.1801 60.1133 92.2268 60.076L92.8148 59.642L93.4028 60.468L92.8568 60.874C92.5768 61.0887 92.2641 61.196 91.9188 61.196C91.7788 61.196 91.6435 61.1773 91.5128 61.14C91.3821 61.112 91.2655 61.0607 91.1628 60.986C91.0601 60.902 90.9761 60.7947 90.9108 60.664C90.8455 60.5333 90.8128 60.37 90.8128 60.174C90.8128 60.0527 90.8315 59.9033 90.8688 59.726L91.4988 56.828ZM99.2031 59.908C98.9044 60.4027 98.5497 60.7433 98.1391 60.93C97.7284 61.1073 97.2944 61.196 96.8371 61.196C96.4637 61.196 96.1231 61.1307 95.8151 61C95.5071 60.8693 95.2457 60.6873 95.0311 60.454C94.8164 60.2113 94.6484 59.922 94.5271 59.586C94.4057 59.2407 94.3451 58.8627 94.3451 58.452C94.3451 57.8733 94.4337 57.3087 94.6111 56.758C94.7884 56.2073 95.0451 55.7173 95.3811 55.288C95.7171 54.8587 96.1277 54.5133 96.6131 54.252C97.1077 53.9907 97.6724 53.86 98.3071 53.86C98.8017 53.86 99.2124 53.9627 99.5391 54.168C99.8751 54.3733 100.104 54.7 100.225 55.148H100.393L101.261 51.004H102.353L100.477 59.824C100.449 59.992 100.51 60.076 100.659 60.076C100.715 60.076 100.776 60.0527 100.841 60.006L101.345 59.642L101.947 60.468L101.317 60.944C101.214 61.0187 101.088 61.0793 100.939 61.126C100.799 61.1727 100.64 61.196 100.463 61.196C100.323 61.196 100.188 61.1773 100.057 61.14C99.9264 61.1027 99.8051 61.0467 99.6931 60.972C99.5904 60.888 99.5064 60.7853 99.4411 60.664C99.3757 60.5333 99.3431 60.3747 99.3431 60.188C99.3431 60.1413 99.3431 60.0947 99.3431 60.048C99.3524 60.0013 99.3617 59.9547 99.3711 59.908H99.2031ZM97.1731 60.16C97.5464 60.16 97.9011 60.076 98.2371 59.908C98.5824 59.7307 98.8811 59.4927 99.1331 59.194C99.3944 58.8953 99.5997 58.5453 99.7491 58.144C99.8984 57.7333 99.9731 57.29 99.9731 56.814C99.9731 56.2353 99.8284 55.7733 99.5391 55.428C99.2497 55.0733 98.8297 54.896 98.2791 54.896C97.8404 54.896 97.4484 54.994 97.1031 55.19C96.7671 55.3767 96.4777 55.6287 96.2351 55.946C95.9924 56.254 95.8057 56.6133 95.6751 57.024C95.5537 57.4347 95.4931 57.8593 95.4931 58.298C95.4931 59.5393 96.0531 60.16 97.1731 60.16ZM104.429 57.864C104.411 57.9387 104.397 58.0227 104.387 58.116C104.378 58.2093 104.373 58.3073 104.373 58.41C104.373 58.9233 104.523 59.348 104.821 59.684C105.12 60.0107 105.596 60.174 106.249 60.174C106.576 60.174 106.865 60.1367 107.117 60.062C107.379 59.9873 107.603 59.8847 107.789 59.754C107.976 59.614 108.135 59.46 108.265 59.292C108.405 59.1147 108.522 58.928 108.615 58.732L109.511 59.236C109.381 59.5067 109.217 59.7633 109.021 60.006C108.825 60.2393 108.592 60.4447 108.321 60.622C108.051 60.7993 107.738 60.9393 107.383 61.042C107.029 61.1447 106.623 61.196 106.165 61.196C105.745 61.196 105.358 61.1307 105.003 61C104.658 60.8787 104.359 60.7013 104.107 60.468C103.855 60.2253 103.659 59.9313 103.519 59.586C103.379 59.2407 103.309 58.8487 103.309 58.41C103.309 57.822 103.403 57.2573 103.589 56.716C103.776 56.1653 104.047 55.68 104.401 55.26C104.756 54.84 105.195 54.504 105.717 54.252C106.24 53.9907 106.833 53.86 107.495 53.86C107.962 53.86 108.368 53.9347 108.713 54.084C109.059 54.224 109.343 54.42 109.567 54.672C109.791 54.9147 109.959 55.1947 110.071 55.512C110.183 55.82 110.239 56.142 110.239 56.478C110.239 56.73 110.211 56.9727 110.155 57.206L110.001 57.864H104.429ZM107.355 54.896C107.029 54.896 106.721 54.9473 106.431 55.05C106.151 55.1433 105.895 55.2787 105.661 55.456C105.428 55.6333 105.227 55.8433 105.059 56.086C104.891 56.3193 104.761 56.576 104.667 56.856H109.119C109.147 56.7067 109.161 56.5667 109.161 56.436C109.161 55.932 108.989 55.5493 108.643 55.288C108.298 55.0267 107.869 54.896 107.355 54.896ZM114.15 55.26C114.178 55.148 114.164 55.064 114.108 55.008C114.052 54.9427 113.982 54.91 113.898 54.91C113.823 54.91 113.753 54.9333 113.688 54.98L112.414 55.848L111.854 55.022L113.1 54.182C113.417 53.9673 113.739 53.86 114.066 53.86C114.355 53.86 114.607 53.944 114.822 54.112C115.036 54.2707 115.158 54.532 115.186 54.896H115.354C115.624 54.5133 115.928 54.2473 116.264 54.098C116.6 53.9393 116.95 53.86 117.314 53.86C117.986 53.86 118.513 54.056 118.896 54.448C119.278 54.8307 119.47 55.3393 119.47 55.974C119.47 56.2167 119.442 56.464 119.386 56.716L118.196 56.8C118.242 56.5667 118.266 56.3707 118.266 56.212C118.266 55.764 118.14 55.4327 117.888 55.218C117.645 55.0033 117.328 54.896 116.936 54.896C116.656 54.896 116.399 54.952 116.166 55.064C115.942 55.1667 115.746 55.3113 115.578 55.498C115.41 55.6753 115.265 55.8853 115.144 56.128C115.032 56.3707 114.948 56.6227 114.892 56.884L114.234 59.992H115.886V61H111.434V59.992H113.142L114.15 55.26ZM133.492 59.908C133.193 60.4027 132.839 60.7433 132.428 60.93C132.017 61.1073 131.583 61.196 131.126 61.196C130.753 61.196 130.412 61.1307 130.104 61C129.796 60.8693 129.535 60.6873 129.32 60.454C129.105 60.2113 128.937 59.922 128.816 59.586C128.695 59.2407 128.634 58.8627 128.634 58.452C128.634 57.8733 128.723 57.3087 128.9 56.758C129.077 56.2073 129.334 55.7173 129.67 55.288C130.006 54.8587 130.417 54.5133 130.902 54.252C131.397 53.9907 131.961 53.86 132.596 53.86C133.091 53.86 133.501 53.9627 133.828 54.168C134.164 54.3733 134.393 54.7 134.514 55.148H134.682L135.55 51.004H136.642L134.766 59.824C134.738 59.992 134.799 60.076 134.948 60.076C135.004 60.076 135.065 60.0527 135.13 60.006L135.634 59.642L136.236 60.468L135.606 60.944C135.503 61.0187 135.377 61.0793 135.228 61.126C135.088 61.1727 134.929 61.196 134.752 61.196C134.612 61.196 134.477 61.1773 134.346 61.14C134.215 61.1027 134.094 61.0467 133.982 60.972C133.879 60.888 133.795 60.7853 133.73 60.664C133.665 60.5333 133.632 60.3747 133.632 60.188C133.632 60.1413 133.632 60.0947 133.632 60.048C133.641 60.0013 133.651 59.9547 133.66 59.908H133.492ZM131.462 60.16C131.835 60.16 132.19 60.076 132.526 59.908C132.871 59.7307 133.17 59.4927 133.422 59.194C133.683 58.8953 133.889 58.5453 134.038 58.144C134.187 57.7333 134.262 57.29 134.262 56.814C134.262 56.2353 134.117 55.7733 133.828 55.428C133.539 55.0733 133.119 54.896 132.568 54.896C132.129 54.896 131.737 54.994 131.392 55.19C131.056 55.3767 130.767 55.6287 130.524 55.946C130.281 56.254 130.095 56.6133 129.964 57.024C129.843 57.4347 129.782 57.8593 129.782 58.298C129.782 59.5393 130.342 60.16 131.462 60.16ZM141.392 51.984C141.392 51.7133 141.486 51.4847 141.672 51.298C141.868 51.102 142.102 51.004 142.372 51.004C142.643 51.004 142.872 51.102 143.058 51.298C143.254 51.4847 143.352 51.7133 143.352 51.984C143.352 52.2547 143.254 52.488 143.058 52.684C142.872 52.8707 142.643 52.964 142.372 52.964C142.102 52.964 141.868 52.8707 141.672 52.684C141.486 52.488 141.392 52.2547 141.392 51.984ZM141.168 55.274C141.187 55.1807 141.173 55.1013 141.126 55.036C141.089 54.9613 141.019 54.924 140.916 54.924C140.842 54.924 140.772 54.9427 140.706 54.98L139.068 56.1L138.508 55.274L140.16 54.154C140.45 53.958 140.762 53.86 141.098 53.86C141.416 53.86 141.691 53.9533 141.924 54.14C142.158 54.3267 142.274 54.616 142.274 55.008C142.274 55.1573 142.256 55.3067 142.218 55.456L141.182 59.782C141.154 59.894 141.164 59.9827 141.21 60.048C141.266 60.1133 141.336 60.146 141.42 60.146C141.486 60.146 141.556 60.1227 141.63 60.076L143.24 58.984L143.8 59.81L142.19 60.902C141.892 61.098 141.579 61.196 141.252 61.196C140.935 61.196 140.66 61.1027 140.426 60.916C140.193 60.7293 140.076 60.44 140.076 60.048C140.076 59.8987 140.095 59.7493 140.132 59.6L141.168 55.274ZM150.581 59.908C150.291 60.4027 149.946 60.7433 149.545 60.93C149.153 61.1073 148.737 61.196 148.299 61.196C147.925 61.196 147.589 61.1307 147.291 61C146.992 60.86 146.74 60.6687 146.535 60.426C146.329 60.1833 146.171 59.894 146.059 59.558C145.947 59.2127 145.891 58.8347 145.891 58.424C145.891 57.836 145.975 57.2667 146.143 56.716C146.311 56.1653 146.553 55.68 146.871 55.26C147.197 54.84 147.599 54.504 148.075 54.252C148.551 53.9907 149.101 53.86 149.727 53.86C150.203 53.86 150.609 53.972 150.945 54.196C151.281 54.4107 151.5 54.728 151.603 55.148H151.771L151.995 54.056H153.087L151.855 59.824C151.836 59.908 151.845 59.9733 151.883 60.02C151.92 60.0573 151.971 60.076 152.037 60.076C152.102 60.076 152.167 60.0527 152.233 60.006L152.737 59.642L153.325 60.468L152.695 60.944C152.592 61.0187 152.461 61.0793 152.303 61.126C152.153 61.1727 151.999 61.196 151.841 61.196C151.701 61.196 151.565 61.1773 151.435 61.14C151.304 61.1027 151.183 61.0467 151.071 60.972C150.968 60.888 150.884 60.7853 150.819 60.664C150.753 60.5333 150.721 60.3747 150.721 60.188C150.721 60.1413 150.721 60.0947 150.721 60.048C150.73 60.0013 150.739 59.9547 150.749 59.908H150.581ZM148.635 60.16C149.008 60.16 149.358 60.076 149.685 59.908C150.021 59.7307 150.31 59.4927 150.553 59.194C150.805 58.8953 151.001 58.5453 151.141 58.144C151.281 57.7333 151.351 57.29 151.351 56.814C151.351 56.2353 151.22 55.7733 150.959 55.428C150.697 55.0733 150.291 54.896 149.741 54.896C149.302 54.896 148.915 54.9893 148.579 55.176C148.252 55.3627 147.972 55.6147 147.739 55.932C147.505 56.24 147.328 56.5993 147.207 57.01C147.095 57.4207 147.039 57.8453 147.039 58.284C147.039 58.9 147.174 59.3667 147.445 59.684C147.715 60.0013 148.112 60.16 148.635 60.16ZM157.011 55.26C157.039 55.148 157.025 55.064 156.969 55.008C156.913 54.9427 156.843 54.91 156.759 54.91C156.684 54.91 156.614 54.9333 156.549 54.98L155.275 55.848L154.715 55.022L155.961 54.182C156.278 53.9673 156.6 53.86 156.927 53.86C157.216 53.86 157.468 53.944 157.683 54.112C157.898 54.2707 158.019 54.532 158.047 54.896H158.215C158.486 54.5133 158.789 54.2473 159.125 54.098C159.461 53.9393 159.811 53.86 160.175 53.86C160.847 53.86 161.374 54.056 161.757 54.448C162.14 54.8307 162.331 55.3393 162.331 55.974C162.331 56.2167 162.303 56.464 162.247 56.716L161.057 56.8C161.104 56.5667 161.127 56.3707 161.127 56.212C161.127 55.764 161.001 55.4327 160.749 55.218C160.506 55.0033 160.189 54.896 159.797 54.896C159.517 54.896 159.26 54.952 159.027 55.064C158.803 55.1667 158.607 55.3113 158.439 55.498C158.271 55.6753 158.126 55.8853 158.005 56.128C157.893 56.3707 157.809 56.6227 157.753 56.884L157.095 59.992H158.747V61H154.295V59.992H156.003L157.011 55.26ZM167.109 51.984C167.109 51.7133 167.203 51.4847 167.389 51.298C167.585 51.102 167.819 51.004 168.089 51.004C168.36 51.004 168.589 51.102 168.775 51.298C168.971 51.4847 169.069 51.7133 169.069 51.984C169.069 52.2547 168.971 52.488 168.775 52.684C168.589 52.8707 168.36 52.964 168.089 52.964C167.819 52.964 167.585 52.8707 167.389 52.684C167.203 52.488 167.109 52.2547 167.109 51.984ZM166.885 55.274C166.904 55.1807 166.89 55.1013 166.843 55.036C166.806 54.9613 166.736 54.924 166.633 54.924C166.559 54.924 166.489 54.9427 166.423 54.98L164.785 56.1L164.225 55.274L165.877 54.154C166.167 53.958 166.479 53.86 166.815 53.86C167.133 53.86 167.408 53.9533 167.641 54.14C167.875 54.3267 167.991 54.616 167.991 55.008C167.991 55.1573 167.973 55.3067 167.935 55.456L166.899 59.782C166.871 59.894 166.881 59.9827 166.927 60.048C166.983 60.1133 167.053 60.146 167.137 60.146C167.203 60.146 167.273 60.1227 167.347 60.076L168.957 58.984L169.517 59.81L167.907 60.902C167.609 61.098 167.296 61.196 166.969 61.196C166.652 61.196 166.377 61.1027 166.143 60.916C165.91 60.7293 165.793 60.44 165.793 60.048C165.793 59.8987 165.812 59.7493 165.849 59.6L166.885 55.274ZM173.007 57.864C172.989 57.9387 172.975 58.0227 172.965 58.116C172.956 58.2093 172.951 58.3073 172.951 58.41C172.951 58.9233 173.101 59.348 173.399 59.684C173.698 60.0107 174.174 60.174 174.827 60.174C175.154 60.174 175.443 60.1367 175.695 60.062C175.957 59.9873 176.181 59.8847 176.367 59.754C176.554 59.614 176.713 59.46 176.843 59.292C176.983 59.1147 177.1 58.928 177.193 58.732L178.089 59.236C177.959 59.5067 177.795 59.7633 177.599 60.006C177.403 60.2393 177.17 60.4447 176.899 60.622C176.629 60.7993 176.316 60.9393 175.961 61.042C175.607 61.1447 175.201 61.196 174.743 61.196C174.323 61.196 173.936 61.1307 173.581 61C173.236 60.8787 172.937 60.7013 172.685 60.468C172.433 60.2253 172.237 59.9313 172.097 59.586C171.957 59.2407 171.887 58.8487 171.887 58.41C171.887 57.822 171.981 57.2573 172.167 56.716C172.354 56.1653 172.625 55.68 172.979 55.26C173.334 54.84 173.773 54.504 174.295 54.252C174.818 53.9907 175.411 53.86 176.073 53.86C176.54 53.86 176.946 53.9347 177.291 54.084C177.637 54.224 177.921 54.42 178.145 54.672C178.369 54.9147 178.537 55.1947 178.649 55.512C178.761 55.82 178.817 56.142 178.817 56.478C178.817 56.73 178.789 56.9727 178.733 57.206L178.579 57.864H173.007ZM175.933 54.896C175.607 54.896 175.299 54.9473 175.009 55.05C174.729 55.1433 174.473 55.2787 174.239 55.456C174.006 55.6333 173.805 55.8433 173.637 56.086C173.469 56.3193 173.339 56.576 173.245 56.856H177.697C177.725 56.7067 177.739 56.5667 177.739 56.436C177.739 55.932 177.567 55.5493 177.221 55.288C176.876 55.0267 176.447 54.896 175.933 54.896ZM184.716 54.84C184.529 54.84 184.333 54.8633 184.128 54.91C183.932 54.9567 183.75 55.0267 183.582 55.12C183.423 55.2133 183.292 55.3347 183.19 55.484C183.087 55.624 183.036 55.792 183.036 55.988C183.036 56.2867 183.166 56.5107 183.428 56.66C183.698 56.8093 184.16 56.9073 184.814 56.954C185.486 57.0007 186.004 57.1687 186.368 57.458C186.741 57.7473 186.928 58.172 186.928 58.732C186.928 59.124 186.844 59.474 186.676 59.782C186.517 60.09 186.293 60.3513 186.004 60.566C185.714 60.7713 185.369 60.9253 184.968 61.028C184.576 61.14 184.142 61.196 183.666 61.196C183.19 61.196 182.784 61.1307 182.448 61C182.121 60.8787 181.85 60.7153 181.636 60.51C181.421 60.2953 181.262 60.0573 181.16 59.796C181.066 59.5253 181.02 59.25 181.02 58.97C181.02 58.9233 181.02 58.8767 181.02 58.83C181.02 58.774 181.024 58.7227 181.034 58.676L182.126 58.536C182.116 58.6107 182.112 58.6573 182.112 58.676C182.112 58.6947 182.112 58.7227 182.112 58.76C182.112 58.9653 182.14 59.1567 182.196 59.334C182.261 59.502 182.364 59.6513 182.504 59.782C182.644 59.9033 182.826 60.0013 183.05 60.076C183.274 60.1507 183.549 60.188 183.876 60.188C184.09 60.188 184.31 60.1647 184.534 60.118C184.767 60.062 184.977 59.9827 185.164 59.88C185.35 59.768 185.504 59.6327 185.626 59.474C185.747 59.306 185.808 59.1053 185.808 58.872C185.808 58.508 185.658 58.2653 185.36 58.144C185.07 58.0133 184.636 57.9247 184.058 57.878C183.395 57.8313 182.872 57.6727 182.49 57.402C182.116 57.1313 181.93 56.7067 181.93 56.128C181.93 55.8013 182 55.498 182.14 55.218C182.28 54.938 182.476 54.7 182.728 54.504C182.989 54.2987 183.297 54.14 183.652 54.028C184.016 53.916 184.417 53.86 184.856 53.86C185.285 53.86 185.654 53.9207 185.962 54.042C186.279 54.154 186.536 54.3033 186.732 54.49C186.937 54.6767 187.086 54.8913 187.18 55.134C187.282 55.3673 187.334 55.61 187.334 55.862V56.016L186.256 56.17V56.114C186.256 56.0953 186.256 56.0813 186.256 56.072C186.265 56.0533 186.27 56.0347 186.27 56.016C186.27 55.6613 186.134 55.3767 185.864 55.162C185.602 54.9473 185.22 54.84 184.716 54.84Z" fill="white"/>
<path d="M62 45H189" stroke="white"/>
</g>
<defs>
<clipPath id="clip0_55_362">
<rect width="192" height="66" fill="white"/>
</clipPath>
</defs>
</svg>
