<svg width="1536" height="826" viewBox="0 0 1536 826" fill="none" xmlns="http://www.w3.org/2000/svg" xmlns:xlink="http://www.w3.org/1999/xlink">
<!-- Static smiley face 1 -->
<path d="M558.466 445.717C559.509 445.279 560.94 445.051 562.072 445.223C563.305 445.411 565.888 446.11 565.628 447.808C565.564 448.225 565.289 448.648 564.948 448.894C564.008 449.571 563.247 448.945 562.357 448.588C562.053 448.471 561.781 448.426 561.467 448.37C564.107 453.86 568.504 458.313 573.961 461.021C580.432 464.344 587.962 464.95 594.881 462.705C601.645 460.391 607.212 455.483 610.356 449.062C612.949 443.927 613.891 438.115 613.053 432.423C612.873 431.253 612.596 429.937 612.222 428.819C612.014 429.058 611.83 429.309 611.692 429.593C611.35 430.298 611.269 431.045 610.468 431.401C609.616 431.779 608.649 431.371 608.319 430.503C608.077 429.867 608.357 429.088 608.63 428.494C609.422 426.772 610.878 425.445 612.666 424.817C614.629 424.111 616.394 424.268 618.255 425.149C618.895 425.491 619.346 425.79 619.491 426.567C619.656 427.455 618.944 428.355 618.041 428.4C617.369 428.433 616.884 428.03 616.28 427.815C615.893 427.672 615.621 427.632 615.215 427.576C615.283 427.78 615.332 428 615.389 428.209C619.152 441.913 612.683 458.727 599.786 465.245C587.714 471.346 572.585 466.645 563.697 457.129C561.482 454.758 559.878 452.389 558.445 449.49C558.177 449.783 558.022 449.981 557.831 450.335C557.461 451.023 557.431 451.745 556.678 452.139C556.294 452.344 555.843 452.384 555.429 452.249C555.011 452.11 554.669 451.804 554.485 451.403C554.239 450.87 554.353 450.246 554.562 449.72C555.345 447.744 556.582 446.585 558.466 445.717Z" fill="white"/>
<path d="M585.623 407.457C587.761 406.318 590.081 409.01 591.24 410.529C594.078 414.251 595.964 418.515 596.591 423.165C596.887 425.368 597.404 429.168 595.405 430.677C592.991 431.947 590.493 428.852 589.253 427.114C586.584 423.428 584.867 419.139 584.255 414.629C583.94 412.435 583.601 408.899 585.623 407.457Z" fill="white"/>
<path d="M564.388 415.678C568.054 413.869 572.591 422.482 573.685 425.104C574.867 427.939 577.212 436.941 574.049 438.963C571.613 440.107 569.076 436.859 567.852 435.11C566.592 433.293 565.53 431.347 564.683 429.305C563.493 426.369 562.423 421.416 562.937 418.226C563.108 417.17 563.492 416.306 564.388 415.678Z" fill="white"/>
<path d="M629.125 419.871C619.963 396.203 593.348 384.444 569.68 393.607C546.012 402.769 534.253 429.384 543.416 453.052C552.579 476.72 579.193 488.479 602.861 479.316L603.798 481.735C578.794 491.415 550.677 478.992 540.997 453.988C531.317 428.984 543.74 400.867 568.744 391.187C593.748 381.507 621.865 393.93 631.545 418.934C641.225 443.938 628.802 472.055 603.798 481.735L602.861 479.316C626.529 470.153 638.288 443.538 629.125 419.871Z" fill="white"/>
<!-- Static smiley face 2 -->
<path d="M677.394 399.676C678.437 399.237 679.868 399.009 681 399.182C682.233 399.369 684.816 400.068 684.556 401.766C684.492 402.184 684.217 402.606 683.876 402.852C682.936 403.529 682.175 402.904 681.285 402.546C680.981 402.429 680.709 402.384 680.395 402.328C683.035 407.818 687.432 412.271 692.889 414.979C699.36 418.302 706.889 418.908 713.809 416.663C720.573 414.349 726.14 409.441 729.284 403.02C731.877 397.885 732.819 392.073 731.981 386.382C731.801 385.212 731.524 383.895 731.15 382.777C730.942 383.016 730.758 383.267 730.62 383.552C730.278 384.256 730.197 385.004 729.396 385.359C728.544 385.737 727.577 385.329 727.247 384.461C727.005 383.825 727.285 383.046 727.558 382.452C728.35 380.73 729.806 379.403 731.594 378.775C733.557 378.069 735.322 378.226 737.183 379.107C737.823 379.45 738.274 379.748 738.419 380.525C738.584 381.413 737.872 382.313 736.969 382.358C736.297 382.392 735.812 381.989 735.208 381.774C734.821 381.63 734.549 381.59 734.143 381.534C734.211 381.738 734.26 381.958 734.317 382.167C738.08 395.871 731.611 412.685 718.714 419.203C706.642 425.304 691.513 420.604 682.625 411.088C680.41 408.716 678.806 406.347 677.373 403.448C677.105 403.741 676.95 403.939 676.759 404.293C676.389 404.981 676.359 405.704 675.606 406.097C675.222 406.302 674.771 406.342 674.357 406.207C673.939 406.068 673.597 405.762 673.413 405.361C673.167 404.828 673.281 404.204 673.49 403.678C674.273 401.702 675.51 400.543 677.394 399.676Z" fill="white"/>
<path d="M704.551 361.416C706.69 360.276 709.009 362.968 710.168 364.488C713.006 368.209 714.892 372.473 715.519 377.124C715.815 379.326 716.332 383.126 714.333 384.635C711.919 385.905 709.421 382.81 708.181 381.073C705.512 377.386 703.795 373.097 703.183 368.588C702.868 366.394 702.529 362.858 704.551 361.416Z" fill="white"/>
<path d="M683.315 369.636C686.982 367.828 691.519 376.44 692.613 379.062C693.795 381.897 696.14 390.9 692.977 392.922C690.541 394.065 688.004 390.818 686.78 389.068C685.52 387.252 684.458 385.306 683.611 383.263C682.421 380.327 681.351 375.374 681.865 372.185C682.036 371.128 682.42 370.264 683.315 369.636Z" fill="white"/>
<path d="M748.054 373.829C738.891 350.161 712.276 338.402 688.608 347.565C664.94 356.728 653.182 383.342 662.344 407.01C671.507 430.678 698.122 442.437 721.79 433.274L722.726 435.693C697.722 445.374 669.605 432.951 659.925 407.947C650.245 382.943 662.668 354.826 687.672 345.146C712.676 335.466 740.793 347.888 750.473 372.892C760.153 397.896 747.73 426.013 722.726 435.693L721.79 433.274C745.458 424.112 757.216 397.497 748.054 373.829Z" fill="white"/>
<!-- Bot icon template (hidden, referenced by use elements) -->
<defs>
<g id="bot-icon">
<rect x="619.736" y="80.8422" width="43.5271" height="37.3188" rx="6" stroke="white" stroke-width="2"/>
<path d="M619.771 88.1199L612.165 90.7686C611.763 90.9085 611.494 91.2874 611.494 91.7129V98.855C611.494 99.3202 611.814 99.7239 612.268 99.8291L619.771 101.571" stroke="white" stroke-width="2"/>
<path d="M663.229 88.1199L670.835 90.7686C671.237 90.9085 671.506 91.2874 671.506 91.7129V98.855C671.506 99.3202 671.186 99.7239 670.732 99.8291L663.229 101.571" stroke="white" stroke-width="2"/>
<path d="M640.465 79.8423V73.634" stroke="white" stroke-width="2"/>
<path d="M640.465 64.2869C642.682 64.287 644.638 66.2951 644.638 68.9773C644.638 71.6597 642.682 73.6685 640.465 73.6687C638.248 73.6687 636.291 71.6598 636.291 68.9773C636.291 66.295 638.248 64.2869 640.465 64.2869Z" stroke="white" stroke-width="2"/>
<path d="M637.768 107.587C638.755 108.179 640.752 109.126 642.515 109.126C643.221 109.126 643.949 109.031 644.578 108.925C645.582 108.756 646.588 108.499 647.434 107.932C648.871 106.969 650.538 105.206 650.731 102.606" stroke="white" stroke-width="2" stroke-linecap="round"/>
<ellipse cx="635.809" cy="95.8799" rx="2.58676" ry="4.65618" fill="white"/>
<ellipse cx="646.673" cy="94.3281" rx="3.10412" ry="5.17353" fill="white"/>
</g>
</defs>
<!-- Orbiting bots — rotate around smiley center (641, 412) -->
<g>
  <animateTransform attributeName="transform" type="rotate" from="0 641 412" to="360 641 412" dur="30s" repeatCount="indefinite"/>
  <use href="#bot-icon"/>
  <use href="#bot-icon" transform="translate(158.867 -178.045) rotate(18)"/>
  <use href="#bot-icon" transform="translate(364.977 -298.284) rotate(36)"/>
  <use href="#bot-icon" transform="translate(598.155 -348.946) rotate(54)"/>
  <use href="#bot-icon" transform="translate(835.576 -325.072) rotate(72)"/>
  <use href="#bot-icon" transform="translate(1054 -229) rotate(90)"/>
  <use href="#bot-icon" transform="translate(1232.05 -70.1331) rotate(108)"/>
  <use href="#bot-icon" transform="translate(1352.28 135.977) rotate(126)"/>
  <use href="#bot-icon" transform="translate(1402.95 369.155) rotate(144)"/>
  <use href="#bot-icon" transform="translate(1379.07 606.577) rotate(162)"/>
  <use href="#bot-icon" transform="translate(1283 825) rotate(-180)"/>
  <use href="#bot-icon" transform="translate(1124.13 1003.05) rotate(-162)"/>
  <use href="#bot-icon" transform="translate(918.023 1123.28) rotate(-144)"/>
  <use href="#bot-icon" transform="translate(684.844 1173.95) rotate(-126)"/>
  <use href="#bot-icon" transform="translate(447.424 1150.07) rotate(-108)"/>
  <use href="#bot-icon" transform="translate(229 1054) rotate(-90)"/>
  <use href="#bot-icon" transform="translate(50.9547 895.133) rotate(-72)"/>
  <use href="#bot-icon" transform="translate(-69.2839 689.023) rotate(-54)"/>
  <use href="#bot-icon" transform="translate(-119.946 455.844) rotate(-36)"/>
  <use href="#bot-icon" transform="translate(-96.0723 218.424) rotate(-18)"/>
</g>
</svg>
