<svg width="1536" height="1210" viewBox="0 0 1536 1210" fill="none" xmlns="http://www.w3.org/2000/svg" xmlns:xlink="http://www.w3.org/1999/xlink">
<!-- Static smiley face 1 -->
<path d="M718.725 672.274C720.198 672.285 722.028 672.748 723.295 673.536C724.674 674.393 727.407 676.558 726.224 678.456C725.932 678.923 725.386 679.288 724.851 679.407C723.379 679.734 722.789 678.595 721.907 677.709C721.603 677.413 721.301 677.219 720.954 676.991C721.293 684.919 724.268 692.508 729.408 698.554C735.447 705.856 744.148 710.451 753.583 711.319C762.869 712.025 772.055 709.011 779.116 702.94C784.859 698.126 788.973 691.653 790.895 684.41C791.281 682.917 791.626 681.199 791.752 679.668C791.38 679.848 791.032 680.054 790.72 680.324C789.949 680.991 789.467 681.844 788.326 681.858C787.112 681.873 786.164 680.888 786.215 679.679C786.252 678.794 786.988 678.005 787.619 677.434C789.452 675.78 791.877 674.94 794.341 675.107C797.052 675.27 799.084 676.365 800.859 678.376C801.449 679.115 801.836 679.704 801.609 680.708C801.351 681.856 800.037 682.568 798.932 682.158C798.111 681.852 797.737 681.12 797.125 680.553C796.735 680.183 796.43 679.995 795.973 679.719C795.949 679.998 795.895 680.287 795.856 680.566C793.319 698.903 776.936 715.705 758.15 716.88C740.565 717.979 724.871 704.579 719.122 688.622C717.689 684.644 716.987 680.985 716.761 676.779C716.29 676.992 716.003 677.149 715.593 677.475C714.795 678.108 714.389 678.958 713.285 679.042C712.72 679.09 712.16 678.906 711.733 678.532C711.304 678.151 711.052 677.608 711.038 677.034C711.018 676.27 711.475 675.581 711.995 675.058C713.948 673.096 716.024 672.345 718.725 672.274Z" fill="white"/>
<path d="M770.89 640.432C774.036 640.167 775.429 644.581 776.035 646.995C777.52 652.908 777.587 658.982 775.947 664.87C775.17 667.659 773.837 672.472 770.668 673.252C767.126 673.531 765.726 668.543 765.134 665.826C763.834 660.042 763.983 654.026 765.567 648.313C766.318 645.526 767.729 641.119 770.89 640.432Z" fill="white"/>
<path d="M741.248 639.36C746.565 639.079 747.571 651.719 747.533 655.42C747.492 659.421 745.672 671.401 740.847 672.196C737.343 672.313 735.976 667.122 735.41 664.4C734.835 661.578 734.563 658.702 734.599 655.823C734.684 651.697 735.948 645.218 738.203 641.665C738.95 640.488 739.854 639.651 741.248 639.36Z" fill="white"/>
<path d="M816.583 677.643C817.777 644.605 791.962 616.855 758.924 615.661C725.886 614.467 698.136 640.282 696.942 673.32C695.748 706.358 721.563 734.108 754.601 735.302L754.479 738.679C719.575 737.418 692.303 708.101 693.565 673.198C694.826 638.295 724.143 611.023 759.046 612.284C793.949 613.545 821.221 642.862 819.96 677.765C818.699 712.668 789.382 739.94 754.479 738.679L754.601 735.302C787.639 736.496 815.389 710.681 816.583 677.643Z" fill="white"/>
<!-- Static smiley face 2 -->
<path d="M852.775 603.601C853.811 603.165 855.233 602.939 856.358 603.11C857.583 603.296 860.15 603.991 859.891 605.678C859.828 606.093 859.555 606.513 859.215 606.757C858.282 607.43 857.526 606.809 856.641 606.453C856.338 606.337 856.069 606.292 855.757 606.237C858.38 611.692 862.749 616.116 868.171 618.807C874.602 622.109 882.083 622.712 888.959 620.481C895.68 618.182 901.213 613.305 904.336 606.924C906.912 601.821 907.848 596.047 907.016 590.391C906.837 589.228 906.562 587.92 906.19 586.809C905.984 587.047 905.801 587.296 905.664 587.579C905.324 588.279 905.243 589.022 904.448 589.375C903.601 589.751 902.64 589.345 902.312 588.483C902.071 587.851 902.35 587.076 902.621 586.487C903.408 584.776 904.855 583.457 906.632 582.832C908.582 582.131 910.336 582.287 912.185 583.163C912.821 583.503 913.269 583.8 913.413 584.572C913.577 585.454 912.87 586.349 911.973 586.393C911.305 586.426 910.823 586.026 910.222 585.812C909.838 585.67 909.568 585.63 909.164 585.574C909.232 585.777 909.281 585.996 909.337 586.203C913.076 599.821 906.648 616.528 893.833 623.005C881.837 629.067 866.804 624.396 857.972 614.941C855.771 612.584 854.178 610.23 852.754 607.35C852.488 607.641 852.334 607.838 852.144 608.189C851.776 608.873 851.746 609.591 850.998 609.982C850.617 610.185 850.168 610.225 849.757 610.091C849.341 609.953 849.002 609.649 848.819 609.251C848.575 608.721 848.688 608.1 848.895 607.578C849.673 605.614 850.903 604.463 852.775 603.601Z" fill="white"/>
<path d="M879.76 565.583C881.885 564.451 884.19 567.126 885.341 568.635C888.162 572.334 890.036 576.571 890.658 581.192C890.953 583.38 891.467 587.156 889.48 588.656C887.081 589.917 884.599 586.842 883.367 585.115C880.715 581.452 879.009 577.191 878.4 572.709C878.088 570.529 877.75 567.016 879.76 565.583Z" fill="white"/>
<path d="M858.658 573.751C862.301 571.954 866.81 580.512 867.897 583.118C869.072 585.935 871.402 594.88 868.259 596.89C865.838 598.026 863.318 594.799 862.101 593.061C860.849 591.255 859.793 589.321 858.952 587.292C857.77 584.375 856.706 579.453 857.218 576.284C857.387 575.234 857.769 574.375 858.658 573.751Z" fill="white"/>
<path d="M922.987 577.918C913.882 554.4 887.436 542.715 863.918 551.82C840.4 560.925 828.715 587.371 837.82 610.889C846.925 634.407 873.371 646.092 896.889 636.987L897.82 639.391C872.974 649.01 845.035 636.666 835.416 611.82C825.798 586.974 838.142 559.035 862.987 549.416C887.833 539.797 915.772 552.141 925.391 576.987C935.01 601.833 922.666 629.772 897.82 639.391L896.889 636.987C920.408 627.882 932.092 601.436 922.987 577.918Z" fill="white"/>
<!-- Bot icon template (hidden, referenced by use elements) -->
<defs>
<g id="bot-icon">
<rect x="793.683" y="129.553" width="23.473" height="19.9994" rx="6" stroke="white" stroke-width="2"/>
<path d="M793.262 133.184L789.302 134.563C788.9 134.703 788.631 135.082 788.631 135.508V138.841C788.631 139.306 788.952 139.71 789.405 139.815L793.262 140.71" stroke="white" stroke-width="2"/>
<path d="M817.578 133.184L821.538 134.563C821.94 134.703 822.209 135.082 822.209 135.508V138.841C822.209 139.306 821.888 139.71 821.435 139.815L817.578 140.71" stroke="white" stroke-width="2"/>
<path d="M804.841 128.553V125.079" stroke="white" stroke-width="2"/>
<path d="M804.841 120.29C805.799 120.29 806.735 121.176 806.735 122.474C806.735 123.772 805.799 124.658 804.841 124.658C803.882 124.658 802.946 123.772 802.946 122.474C802.946 121.176 803.882 120.29 804.841 120.29Z" stroke="white" stroke-width="2"/>
<path d="M803.332 144.076C803.884 144.408 805.001 144.938 805.988 144.938C806.149 144.938 806.312 144.929 806.473 144.914C807.487 144.823 808.516 144.536 809.272 143.855C809.91 143.28 810.5 142.428 810.585 141.289" stroke="white" stroke-width="2" stroke-linecap="round"/>
<ellipse cx="802.236" cy="137.526" rx="1.44733" ry="2.6052" fill="white"/>
<ellipse cx="808.314" cy="136.658" rx="1.7368" ry="2.89466" fill="white"/>
</g>
</defs>
<!-- Orbiting bots — rotate around center (806, 604) -->
<g>
  <animateTransform attributeName="transform" type="rotate" from="0 806 604" to="360 806 604" dur="60s" repeatCount="indefinite"/>
  <use href="#bot-icon"/>
  <use href="#bot-icon" transform="translate(175.866 -181.279) rotate(14.4)"/>
  <use href="#bot-icon" transform="translate(391.288 -313.128) rotate(28.8)"/>
  <use href="#bot-icon" transform="translate(632.733 -387.26) rotate(43.2)"/>
  <use href="#bot-icon" transform="translate(885.027 -399.019) rotate(57.6)"/>
  <use href="#bot-icon" transform="translate(1132.32 -347.665) rotate(72)"/>
  <use href="#bot-icon" transform="translate(1359.07 -236.425) rotate(86.4)"/>
  <use href="#bot-icon" transform="translate(1551.04 -72.2894) rotate(100.8)"/>
  <use href="#bot-icon" transform="translate(1696.15 134.43) rotate(115.2)"/>
  <use href="#bot-icon" transform="translate(1785.3 370.743) rotate(129.6)"/>
  <use href="#bot-icon" transform="translate(1812.88 621.801) rotate(144)"/>
  <use href="#bot-icon" transform="translate(1777.15 871.83) rotate(158.4)"/>
  <use href="#bot-icon" transform="translate(1680.37 1105.12) rotate(172.8)"/>
  <use href="#bot-icon" transform="translate(1528.61 1307.01) rotate(-172.8)"/>
  <use href="#bot-icon" transform="translate(1331.41 1464.82) rotate(-158.4)"/>
  <use href="#bot-icon" transform="translate(1101.16 1568.63) rotate(-144)"/>
  <use href="#bot-icon" transform="translate(852.33 1611.92) rotate(-129.6)"/>
  <use href="#bot-icon" transform="translate(600.55 1591.96) rotate(-115.2)"/>
  <use href="#bot-icon" transform="translate(361.644 1510.02) rotate(-100.8)"/>
  <use href="#bot-icon" transform="translate(150.622 1371.24) rotate(-86.4)"/>
  <use href="#bot-icon" transform="translate(-19.2571 1184.33) rotate(-72)"/>
  <use href="#bot-icon" transform="translate(-137.319 961.058) rotate(-57.6)"/>
  <use href="#bot-icon" transform="translate(-196.144 715.435) rotate(-43.2)"/>
  <use href="#bot-icon" transform="translate(-192.038 462.9) rotate(-28.8)"/>
  <use href="#bot-icon" transform="translate(-125.258 219.32) rotate(-14.4)"/>
</g>
</svg>
